<svg version="1.1" id="Layer_1" xmlns="http://www.w3.org/2000/svg" xmlns:xlink="http://www.w3.org/1999/xlink" x="0px" y="0px"
	 width="100%" viewBox="0 0 1024 528" enable-background="new 0 0 1024 528" xml:space="preserve">
<path fill="#000000" opacity="1.000000" stroke="none" 
	d="
M383.515320,264.337585 
	C357.533569,189.440491 397.241547,113.521461 465.502167,88.448418 
	C516.660950,69.657120 564.210022,78.682236 606.050842,114.145599 
	C633.487061,137.399902 649.044128,167.462158 652.967957,202.946442 
	C657.224670,241.441559 646.864136,276.178345 622.246094,306.340271 
	C600.076599,333.502167 571.798096,350.791534 537.099548,356.109741 
	C489.049896,363.474274 448.044098,348.769531 414.226746,314.035950 
	C400.443573,299.879303 390.439667,283.259949 383.515320,264.337585 
M395.907990,271.663605 
	C397.763275,275.386597 399.389557,279.245605 401.508057,282.812256 
	C435.881531,340.683136 499.846069,362.380829 558.824280,340.966705 
	C636.721680,312.683289 666.724976,222.828110 628.664795,155.536728 
	C600.598267,105.914528 548.916382,82.557907 495.658600,89.703392 
	C463.585571,94.006561 436.477966,108.893288 415.853119,133.997345 
	C381.810486,175.433182 375.336090,221.326065 395.907990,271.663605 
z"/>
<path fill="#000000" opacity="1.000000" stroke="none" 
	d="
M372.845490,432.926697 
	C376.083893,428.308075 376.955841,422.990601 378.674561,418.007538 
	C381.549866,409.671173 384.055511,401.208008 386.810730,392.829132 
	C388.363617,388.106567 392.070801,385.868622 395.801788,387.187561 
	C399.444244,388.475189 400.669373,391.810852 398.988556,396.808441 
	C393.630127,412.740356 388.170349,428.638214 382.744202,444.547333 
	C381.992310,446.751862 381.174286,448.934296 380.448364,451.147125 
	C379.108582,455.231140 376.053925,457.043854 372.040558,456.807770 
	C367.959167,456.567719 364.950592,454.695160 363.604736,450.315521 
	C360.232513,439.341858 356.601501,428.446655 352.967499,417.555634 
	C352.376312,415.783844 352.273102,413.530273 349.953796,412.703156 
	C347.822388,413.483856 347.822449,415.522278 347.259094,417.165863 
	C343.482452,428.184631 339.656464,439.187805 336.034668,450.257599 
	C334.681000,454.394989 332.338135,456.945496 327.832764,456.825012 
	C323.177032,456.700531 320.264374,454.500397 318.696045,449.851471 
	C312.950745,432.821411 306.918549,415.888275 301.025604,398.907776 
	C300.484283,397.348022 299.959900,395.733154 299.785583,394.105560 
	C299.422546,390.715179 300.817139,388.148010 304.210052,387.234802 
	C307.524841,386.342682 310.279175,387.654633 311.688202,390.699127 
	C313.148590,393.854492 314.094971,397.249847 315.234619,400.551117 
	C318.275452,409.359833 321.271973,418.184021 324.350739,426.979401 
	C325.045319,428.963745 325.568939,431.138306 327.584106,432.325623 
	C330.169861,431.596985 330.211243,429.361450 330.797333,427.553558 
	C334.492340,416.155975 338.183929,404.756897 341.786652,393.329926 
	C342.994904,389.497742 344.924103,386.759583 349.386475,386.717834 
	C353.987061,386.674835 356.201874,389.285583 357.541779,393.357910 
	C361.389374,405.051849 365.386719,416.696594 369.339844,428.355713 
	C369.964661,430.198456 370.157532,432.365540 372.845490,432.926697 
z"/>
<path fill="#000000" opacity="1.000000" stroke="none" 
	d="
M515.623657,453.679321 
	C520.104919,447.703674 521.092651,441.989197 516.964050,437.353363 
	C509.866241,429.383606 506.971130,419.396484 502.312439,410.255676 
	C501.492371,408.646667 501.048370,406.790161 499.390259,405.690613 
	C497.179382,405.517792 496.659241,407.287933 495.989594,408.742889 
	C493.691803,413.735382 491.530212,418.791077 489.196381,423.766266 
	C487.783173,426.778839 488.870209,428.326019 491.904541,428.454742 
	C495.052734,428.588287 498.218201,428.300140 501.376526,428.211334 
	C503.591034,428.149078 505.952209,427.500885 508.008667,429.696289 
	C506.046936,431.815491 503.582306,431.521545 501.409271,431.869537 
	C499.084839,432.241791 496.558899,432.323303 494.939667,434.137604 
	C491.778625,437.679443 488.675385,440.874664 483.288483,440.379974 
	C481.685852,440.232819 481.092560,442.219666 480.440491,443.550659 
	C478.902252,446.690521 477.525452,449.914429 475.878235,452.994659 
	C473.960785,456.580261 470.642181,457.269592 467.324738,455.691376 
	C464.046356,454.131836 463.140442,451.131439 464.723724,447.646332 
	C473.266357,428.842285 481.803711,410.035889 490.344818,391.231171 
	C491.822845,387.977112 494.420990,386.684357 497.923187,386.526886 
	C502.081299,386.339996 505.103668,388.036011 506.882751,391.640869 
	C510.346466,398.659332 513.592590,405.784851 516.968262,412.847168 
	C520.847656,420.963409 524.656799,429.116394 528.714539,437.143158 
	C531.275146,442.208313 531.031616,447.010773 528.565674,451.962585 
	C523.038147,463.062531 507.801239,467.434784 497.771179,460.738464 
	C492.494720,457.215790 489.850403,451.083740 491.054962,445.163940 
	C492.292908,439.079865 496.411652,435.031708 502.394592,434.018677 
	C508.226440,433.031281 514.981384,437.250122 516.439087,442.790344 
	C517.740112,447.734955 514.837341,452.804718 509.678864,454.597229 
	C504.919769,456.250946 499.902100,453.352448 499.038422,448.450653 
	C498.365692,444.632355 501.179810,441.122070 504.796539,441.370178 
	C507.003876,441.521606 508.677399,442.632751 509.061462,444.893463 
	C509.537689,447.696533 507.456207,447.957825 504.417725,448.017456 
	C507.448090,449.282990 509.289093,449.133850 510.233978,446.859924 
	C511.218719,444.490204 510.024475,442.551971 508.052521,441.322296 
	C505.372192,439.650940 502.599396,439.938171 500.139557,441.888916 
	C497.326019,444.120270 496.631775,447.054413 497.822357,450.401855 
	C500.238922,457.196442 508.264435,458.802826 515.623657,453.679321 
z"/>
<path fill="#000000" opacity="1.000000" stroke="none" 
	d="
M543.619995,433.999451 
	C543.623291,421.014374 543.578796,408.528870 543.648926,396.044006 
	C543.687683,389.142090 545.283691,387.653259 552.309448,387.631897 
	C560.299866,387.607574 568.291077,387.572021 576.280823,387.653137 
	C587.974670,387.771851 596.539673,393.530670 599.442261,403.095764 
	C602.350830,412.680542 598.758301,421.508789 589.175842,428.396698 
	C588.255737,429.058105 587.430481,429.851501 586.254822,430.841644 
	C589.741943,436.725494 594.580017,441.358124 598.500183,446.669434 
	C600.508911,449.390900 600.427979,451.957794 598.129883,454.303131 
	C595.630615,456.853729 592.650940,457.422394 589.550903,455.404938 
	C588.465271,454.698395 587.559082,453.632263 586.757568,452.587219 
	C582.706543,447.305450 578.668457,442.012268 574.722656,436.651764 
	C571.961670,432.900909 561.704895,430.389923 557.720459,432.572235 
	C556.032654,433.496613 556.319458,435.075470 556.299622,436.517426 
	C556.237915,441.011414 556.216309,445.506683 556.248108,450.001007 
	C556.278809,454.339355 553.853271,456.637787 549.853394,456.738678 
	C545.617615,456.845459 543.626709,454.181030 543.640808,449.980896 
	C543.658142,444.820435 543.629089,439.659821 543.619995,433.999451 
M586.503540,406.376099 
	C584.573730,401.610687 580.583801,399.741577 575.894226,399.451874 
	C570.773193,399.135498 565.618286,399.407806 560.480347,399.307648 
	C557.583801,399.251190 556.185181,400.401398 556.247559,403.402039 
	C556.340576,407.876526 556.320190,412.354797 556.266113,416.830444 
	C556.232727,419.594727 557.592163,420.699188 560.242126,420.664978 
	C564.883362,420.605072 569.545654,420.891235 574.163208,420.548370 
	C582.633057,419.919464 587.059631,414.995880 586.503540,406.376099 
z"/>
<path fill="#000000" opacity="1.000000" stroke="none" 
	d="
M730.035278,438.986694 
	C730.015869,442.814758 730.045837,446.147339 729.958069,449.476776 
	C729.850159,453.566986 727.947266,456.115845 723.624451,456.271545 
	C719.638123,456.415161 717.025269,453.851898 716.870911,449.290833 
	C716.673889,443.466583 716.637207,437.628815 716.791748,431.803772 
	C716.884583,428.304352 715.449646,427.085632 712.060791,427.153290 
	C704.734314,427.299622 697.402283,427.285187 690.074463,427.187469 
	C686.607483,427.141235 685.310913,428.774445 685.341370,432.055359 
	C685.395569,437.884766 685.391052,443.716309 685.291931,449.544952 
	C685.213379,454.165039 682.901001,456.691895 678.767822,456.620605 
	C674.349182,456.544373 672.688477,453.840149 672.687927,449.734222 
	C672.685547,431.077942 672.680359,412.421600 672.651001,393.765350 
	C672.644897,389.857086 674.300476,387.306732 678.346680,386.951080 
	C682.140930,386.617615 685.127319,389.546326 685.259216,393.813416 
	C685.429016,399.305634 685.414856,404.807190 685.327393,410.302277 
	C685.276611,413.490814 686.647949,414.818298 689.813293,414.782043 
	C697.308044,414.696075 704.805237,414.680878 712.299622,414.776337 
	C715.523071,414.817352 716.796204,413.416901 716.723389,410.264374 
	C716.615723,405.602875 716.686523,400.936890 716.707642,396.272919 
	C716.737061,389.751434 718.663513,386.845306 722.954346,386.792969 
	C727.138306,386.741943 729.605652,389.644257 729.732605,396.018188 
	C730.014404,410.171783 729.953613,424.332214 730.035278,438.986694 
z"/>
<path fill="#000000" opacity="1.000000" stroke="none" 
	d="
M408.411438,439.374084 
	C397.610901,415.832458 408.532867,392.271851 432.367584,387.348572 
	C438.753601,386.029480 445.302002,386.055725 451.668457,387.843353 
	C456.201141,389.116089 458.178009,392.171478 457.082733,395.914520 
	C455.897675,399.964355 452.804047,399.920898 449.432220,399.379913 
	C446.485138,398.907104 443.514679,398.431274 440.539917,398.307068 
	C430.849945,397.902435 423.796844,402.279205 419.705841,410.926849 
	C415.333618,420.168945 416.275909,429.365295 422.735046,437.162567 
	C428.788055,444.469604 436.980316,447.279297 446.522491,444.772644 
	C447.326569,444.561432 448.125366,444.329437 448.923737,444.097290 
	C452.443939,443.073578 455.652679,442.984222 457.023804,447.274414 
	C458.169220,450.858307 456.052887,454.353973 452.017242,455.820374 
	C438.183075,460.847137 419.496216,455.093079 410.723694,443.080627 
	C409.940948,442.008820 409.303986,440.830536 408.411438,439.374084 
z"/>
<path fill="#000000" opacity="1.000000" stroke="none" 
	d="
M641.190186,422.000244 
	C641.193420,431.321655 641.161011,440.143341 641.214355,448.964508 
	C641.240112,453.217834 639.544983,456.061493 635.135376,456.696838 
	C631.335510,457.244324 628.701294,454.786926 628.635437,450.403259 
	C628.457886,438.593933 628.173157,426.777191 628.409119,414.972931 
	C628.716492,399.602142 628.915222,399.575470 613.422974,399.376221 
	C610.093140,399.333374 606.971313,399.170593 605.888123,395.230133 
	C604.710510,390.946136 607.073792,387.355469 611.644592,387.313843 
	C626.933838,387.174591 642.225708,387.256927 657.515930,387.358307 
	C661.258057,387.383118 663.448242,389.596924 663.612671,393.283386 
	C663.784851,397.146088 661.462524,399.097229 657.755798,399.259674 
	C654.100586,399.419891 650.430115,399.449615 646.774170,399.319000 
	C642.699585,399.173401 641.048584,401.032806 641.144226,405.023407 
	C641.275757,410.512909 641.185242,416.007751 641.190186,422.000244 
z"/>
<path fill="#000000" opacity="1.000000" stroke="none" 
	d="
M455.750549,419.448761 
	C456.260590,424.797943 453.426514,426.880798 448.980560,426.991333 
	C442.327301,427.156769 435.664917,427.087158 429.009064,426.968903 
	C425.254578,426.902161 422.573151,425.475128 422.588806,421.067566 
	C422.604034,416.775452 425.058105,415.080505 428.903442,415.026642 
	C435.725861,414.931000 442.551483,414.956604 449.374298,415.044922 
	C452.208466,415.081573 454.607269,416.076141 455.750549,419.448761 
z"/>
<path fill="#000000" opacity="1.000000" stroke="none" 
	d="
M489.682678,133.497223 
	C492.002747,132.878860 493.925568,131.976669 495.867371,131.933746 
	C502.042267,131.797226 503.448822,127.979538 503.688141,122.806152 
	C503.794495,120.507744 504.284760,118.177391 504.947998,115.965691 
	C506.038025,112.330856 508.269958,109.732735 512.427673,109.820541 
	C516.419617,109.904861 519.087036,112.192383 520.120667,115.851189 
	C521.108215,119.346748 521.671021,123.008392 521.981018,126.634605 
	C522.227661,129.519562 523.478516,130.569412 526.239685,131.029526 
	C532.641418,132.096268 539.056946,133.271454 545.082153,135.821747 
	C547.315552,136.767090 548.889648,135.938705 550.514221,134.580551 
	C556.427612,129.637024 558.181335,121.059555 554.678406,113.650681 
	C552.336975,108.698486 548.659729,104.929428 544.130859,101.899071 
	C542.850037,101.042053 540.865417,100.844696 540.525208,97.999039 
	C548.265198,99.305847 553.845215,103.283646 557.701294,109.496346 
	C564.177185,119.929985 562.389587,129.787201 554.606140,138.563187 
	C555.620911,140.807968 557.395325,141.497635 558.926270,142.436691 
	C583.776306,157.679733 598.998657,179.380035 603.645935,208.382919 
	C611.205322,255.559723 576.011780,302.927765 528.821716,310.397369 
	C477.591797,318.506378 429.856720,282.016998 423.842133,230.016266 
	C419.157440,189.513458 444.933167,148.864426 484.536804,135.130310 
	C486.109558,134.584900 487.707764,134.112869 489.682678,133.497223 
M468.868896,172.667480 
	C472.068695,165.738724 476.440460,159.828720 482.808044,155.377090 
	C487.811096,151.879425 493.204865,149.355316 499.056152,147.911865 
	C504.342072,146.607895 502.902740,142.566086 502.466217,139.458557 
	C501.973999,135.954865 498.944153,137.323761 496.846771,137.860214 
	C492.821960,138.889648 488.767151,139.920074 484.888031,141.382950 
	C440.137604,158.258896 418.059387,208.093552 435.420532,251.896408 
	C449.585632,287.635559 486.763733,309.905518 524.766968,304.953125 
	C565.676331,299.621979 595.983765,266.285950 598.407898,226.702744 
	C600.666931,189.815887 583.482544,162.818741 551.472595,144.958832 
	C549.663147,143.949249 548.010010,143.317368 545.887878,144.482178 
	C540.108582,147.654419 533.728699,149.177155 527.272156,149.806290 
	C522.698059,150.251984 521.485046,152.473343 521.283264,156.539230 
	C520.498962,172.337982 519.588196,188.131058 518.602661,203.918655 
	C518.396790,207.216736 519.286133,208.917206 522.886536,209.023819 
	C527.631714,209.164368 532.523132,210.724014 533.906372,215.376602 
	C535.594727,221.055710 539.823608,222.563858 544.256042,224.284760 
	C547.192078,225.424652 549.472534,226.870010 550.591980,230.076462 
	C554.049744,239.980728 557.619629,249.848251 561.323608,259.663025 
	C562.841614,263.685394 561.722168,265.952759 557.696655,267.261414 
	C551.206665,269.371246 544.719543,271.517120 538.346313,273.949463 
	C533.777771,275.693054 531.577881,274.053619 530.183044,269.722351 
	C527.069763,260.055267 523.747803,250.454910 520.450806,240.847977 
	C519.833252,239.048523 519.282471,237.212280 520.311584,235.540802 
	C523.836304,229.815826 525.416199,222.827011 531.461853,218.771194 
	C529.764404,213.979767 526.327698,212.677231 521.921082,213.175735 
	C517.560913,213.668961 518.182373,217.166702 517.978516,220.056320 
	C516.315186,243.632095 515.669189,267.274261 513.359741,290.808105 
	C513.242798,291.999542 513.504578,293.341156 511.337250,295.071106 
	C509.748169,269.913635 508.221313,245.741470 506.637756,220.671188 
	C497.445374,224.544189 489.188660,224.194489 480.869354,223.390442 
	C477.677338,223.081924 474.564178,223.946304 471.610779,225.134552 
	C463.238831,228.502899 461.169434,236.647125 466.739655,243.616013 
	C467.887146,245.051682 470.082977,246.016785 469.584595,248.623550 
	C467.730225,249.552170 466.409851,248.460861 465.129578,247.436859 
	C460.155518,243.458328 458.388367,236.012665 461.086273,230.208344 
	C464.536865,222.784683 471.090118,220.253372 478.576477,219.804428 
	C484.551025,219.446167 490.578522,220.007309 496.558838,219.699753 
	C504.692841,219.281479 507.197632,216.151321 506.577057,208.276749 
	C506.184753,203.298920 505.972565,198.306946 505.673523,193.321701 
	C504.975586,181.686996 504.304688,170.050537 503.553894,158.419235 
	C503.344879,155.181732 502.748047,152.357468 498.186218,153.587326 
	C477.963318,159.039368 466.082886,178.865295 470.854584,199.329285 
	C471.168549,200.675705 472.156860,202.062729 470.990997,203.510376 
	C465.421906,198.235962 464.391998,185.074249 468.868896,172.667480 
M530.582214,233.640564 
	C528.781311,232.894333 528.478333,231.083755 527.947876,228.700089 
	C525.992615,233.347672 522.107849,236.192474 524.024353,241.345474 
	C527.153625,249.759277 529.858337,258.334900 532.588196,266.891357 
	C533.664307,270.264221 535.379578,271.467712 538.881287,270.168549 
	C544.026306,268.259705 549.219788,266.446472 554.484863,264.907959 
	C558.425964,263.756317 558.777710,261.669250 557.399536,258.210907 
	C554.568237,251.105850 551.478271,244.035080 549.498230,236.680069 
	C547.742249,230.157104 544.066467,226.780746 537.686401,225.902802 
	C538.940735,232.230972 537.342896,234.253342 530.582214,233.640564 
M530.425964,143.881470 
	C533.485718,143.098877 536.813965,143.053467 539.989319,140.785263 
	C535.139771,138.884399 530.873352,137.597855 526.362915,137.118362 
	C522.866333,136.746643 521.745300,138.601089 522.228271,141.590698 
	C523.082397,146.877640 526.837769,144.145111 530.425964,143.881470 
M509.480103,143.526520 
	C510.348663,146.085236 512.217957,145.377167 513.927429,144.794174 
	C515.968750,144.098038 515.702209,142.238754 515.682007,140.638275 
	C515.662231,139.069031 516.184448,137.029968 514.141052,136.402908 
	C512.000366,135.745987 509.727417,135.702316 509.399902,138.835785 
	C509.264343,140.132889 509.383209,141.456604 509.480103,143.526520 
M511.200348,161.508484 
	C511.718170,162.335388 512.455994,163.639221 513.298645,162.245056 
	C515.079102,159.299271 515.132568,155.942902 514.467773,152.639984 
	C514.241516,151.515701 513.098572,151.323288 512.041260,151.474472 
	C510.886353,151.639618 510.293152,152.422562 510.264374,153.511368 
	C510.199127,155.982361 510.001678,158.477219 511.200348,161.508484 
M511.353821,129.783508 
	C512.829712,129.794464 514.482117,129.952377 514.684998,127.904068 
	C514.852966,126.209259 514.435669,124.670807 512.278381,124.010468 
	C510.291687,125.427773 509.252960,127.112030 511.353821,129.783508 
z"/>
<path fill="#000000" opacity="1.000000" stroke="none" 
	d="
M549.411316,246.684341 
	C551.418152,251.134079 550.657410,254.753922 547.199890,257.856537 
	C548.422974,258.356262 550.060120,256.499207 550.542603,258.670807 
	C550.854248,260.073364 549.757019,260.693451 548.763428,261.354095 
	C544.034912,264.498199 538.011902,263.547699 534.452637,259.066895 
	C531.048279,254.781067 531.228394,249.386002 534.888977,245.994400 
	C539.025330,242.161987 544.467590,242.304504 549.411316,246.684341 
z"/>
</svg>