<svg version="1.1" id="Layer_1" xmlns="http://www.w3.org/2000/svg" xmlns:xlink="http://www.w3.org/1999/xlink" x="0px" y="0px"
	 width="100%" viewBox="181 38.5 132.2 133.6" xml:space="preserve">
<path fill="#000000" opacity="1.000000" stroke="none" 
	d="
M251.671921,172.111282 
	C216.806000,172.965652 189.431854,152.685928 181.422546,120.443733 
	C171.747101,81.494446 199.516113,42.647747 239.488419,38.546158 
	C276.501862,34.748180 313.113708,63.481724 313.178375,105.047577 
	C313.230164,138.351700 288.654175,166.494293 255.575806,171.474533 
	C254.424408,171.647903 253.281204,171.875671 251.671921,172.111282 
M184.349091,109.122856 
	C186.581772,143.974884 220.014435,176.321426 263.688049,164.587891 
	C291.285187,157.173523 312.735596,126.950645 307.742584,95.950706 
	C302.038879,60.538086 267.527039,34.743881 229.414383,45.502773 
	C200.380890,53.698696 183.922470,77.802063 184.349091,109.122856 
z"/>
<path fill="#000000" opacity="1.000000" stroke="none" 
	d="
M231.041641,147.212112 
	C211.558411,139.229874 201.438309,122.785423 202.693710,101.667404 
	C203.728317,84.263634 217.509766,68.436668 235.958328,63.687004 
	C238.866272,62.938343 240.739899,61.964420 240.823975,58.533863 
	C240.885971,56.003792 241.841019,53.282337 244.867096,53.017525 
	C247.987076,52.744499 248.876099,55.295406 249.563171,57.856274 
	C250.608505,61.752422 257.867554,66.008705 261.834229,65.173431 
	C265.682068,64.363182 267.190521,57.779629 264.269989,53.684784 
	C262.880188,51.736195 260.996460,50.139893 259.041565,48.072083 
	C268.187531,48.942173 270.950043,56.808559 266.290344,67.067429 
	C293.289093,83.721313 293.121521,111.401817 284.166504,127.411255 
	C273.676178,146.165466 251.723434,154.451141 231.041641,147.212112 
M217.543549,78.051300 
	C208.664673,87.597961 204.332550,98.682503 206.323196,111.813950 
	C209.264389,131.216003 225.642426,147.375458 247.514954,146.495407 
	C274.965088,145.390930 292.766846,118.027847 283.552368,92.171959 
	C280.221222,82.824829 273.677856,76.212601 265.369263,70.997803 
	C261.004364,68.258202 257.866943,72.432465 254.030701,72.237709 
	C251.039841,72.085854 249.840271,74.045525 249.695297,76.630402 
	C249.259796,84.395515 248.965302,92.168541 248.618515,99.877495 
	C255.600800,100.900391 258.155701,107.474190 263.504028,110.079262 
	C263.855225,110.250320 263.989288,110.928375 264.162659,111.393593 
	C265.673553,115.447113 267.170532,119.505806 268.671265,123.563118 
	C269.343628,125.380936 269.837189,127.370514 267.602386,128.293625 
	C264.078461,129.749207 260.430176,130.916855 256.794617,132.081787 
	C255.549500,132.480774 254.641678,131.719391 253.891281,130.664032 
	C248.538574,123.136047 248.162384,113.531059 252.928223,105.703743 
	C253.150360,105.338921 253.071838,104.791046 253.154922,104.166077 
	C249.863846,102.423180 248.501129,103.677063 248.295853,106.975601 
	C247.955185,112.449577 247.675217,117.928207 247.256577,123.396210 
	C246.866501,128.491257 246.328949,133.575012 245.742615,139.887878 
	C243.475830,136.602234 243.836960,134.230133 243.702988,131.972672 
	C243.308807,125.330467 243.040604,118.678551 242.499863,112.048645 
	C242.341782,110.110344 242.583832,107.025284 239.233032,107.652382 
	C235.891266,108.277786 232.596008,107.909340 229.285812,108.080727 
	C222.867981,108.413017 220.931854,112.180420 224.256927,117.727829 
	C224.613647,118.322968 224.890503,118.908264 223.891617,119.568932 
	C220.529266,118.296638 219.247726,115.616585 219.876816,112.211395 
	C220.601593,108.288071 223.553497,106.292046 227.272766,105.806023 
	C230.224243,105.420326 233.264725,105.773911 236.250046,105.570114 
	C238.591599,105.410263 241.515854,104.999275 241.682709,102.187973 
	C242.230942,92.951698 241.303284,83.772301 240.034042,73.930069 
	C227.880859,77.589767 224.143570,85.834648 225.627151,97.978035 
	C224.368118,96.687149 224.039291,96.500458 223.944809,96.231461 
	C220.305176,85.869301 225.084641,76.307930 236.175049,71.965225 
	C238.587326,71.020638 240.863358,70.281174 239.660553,66.679420 
	C231.008530,67.825905 224.042618,71.705772 217.543549,78.051300 
201.081009,213.593582 
	C192.830734,208.436035 192.095383,199.919159 195.325226,193.821609 
	C198.333176,188.143005 205.358948,184.445694 212.101685,185.260208 
	C214.467728,185.546021 217.241028,185.233810 218.887436,188.250397 
z"/>
<path fill="#000000" opacity="1.000000" stroke="none" 
	d="
M251.187515,114.951073 
	C251.742844,116.852554 252.220444,118.780876 252.866302,120.651100 
	C256.602417,131.469620 254.750214,130.500229 265.541382,126.453377 
	C265.792267,126.359291 265.922333,125.943024 266.382324,125.286644 
	C264.187836,120.239586 263.716553,114.173920 259.311554,109.223404 
	C257.428223,111.650856 255.881638,113.567062 252.841904,112.277580 
	C251.676834,111.783356 251.421692,113.288979 251.187515,114.951073 
M250.713242,68.840805 
	C252.933792,70.395798 254.594574,68.730064 256.403076,67.694443 
	C254.433319,68.124001 252.184219,64.113800 250.713242,68.840805 
z"/>
<path fill="#000000" opacity="1.000000" stroke="none" 
	d="
M255.502014,118.290726 
	C258.604980,116.208702 261.429321,115.625175 263.218140,119.171722 
	C264.310577,121.337578 265.031494,124.000557 262.728180,125.959053 
	C260.852448,127.554024 258.420410,126.985703 256.718811,125.829552 
	C254.159256,124.090462 253.312241,121.491913 255.502014,118.290726 
z"/>
</svg>